{
  "accessors": [
    {
      "bufferView": 2,
      "componentType": 5126,
      "count": 65532,
      "max": [
        0.1539899706840515,
        -0.046404000371694565,
        0.15894295275211334
      ],
      "min": [
        -0.04282499477267265,
        -0.09556899964809418,
        -0.09455599635839462
      ],
      "type": "VEC3"
    },
    {
      "bufferView": 2,
      "byteOffset": 786384,
      "componentType": 5126,
      "count": 65532,
      "max": [
        0.9999618530273438,
        0.9998547434806824,
        0.9999845027923584
      ],
      "min": [
        -0.9998728632926941,
        -0.9999947547912598,
        -0.9999813437461853
      ],
      "type": "VEC3"
    },
    {
      "bufferView": 1,
      "componentType": 5126,
      "count": 65532,
      "max": [
        0.9997519850730896,
        0.9792479872703552
      ],
      "min": [
        0.00024399999529123306,
        0.0002809999859891832
      ],
      "type": "VEC2"
    },
    {
      "bufferView": 0,
      "componentType": 5125,
      "count": 288738,
      "type": "SCALAR"
    },
    {
      "bufferView": 2,
      "byteOffset": 1572768,
      "componentType": 5126,
      "count": 65532,
      "max": [
        0.15838056802749634,
        -0.04682999849319458,
        0.15431499481201172
      ],
      "min": [
        -0.015061000362038612,
        -0.08663000166416168,
        -0.06440100073814392
      ],
      "type": "VEC3"
    },
    {
      "bufferView": 2,
      "byteOffset": 2359152,
      "componentType": 5126,
      "count": 65532,
      "max": [
        0.9999668598175049,
        0.9997949600219727,
        0.9998661875724792
      ],
      "min": [
        -0.9999368190765381,
        -0.999992847442627,
        -0.9999991655349731
      ],
      "type": "VEC3"
    },
    {
      "bufferView": 1,
      "byteOffset": 524256,
      "componentType": 5126,
      "count": 65532,
      "max": [
        0.9997079968452454,
        0.9616699814796448
      ],
      "min": [
        0.00024399999529123306,
        0.00024500000290572643
      ],
      "type": "VEC2"
    },
    {
      "bufferView": 0,
      "byteOffset": 1154952,
      "componentType": 5125,
      "count": 272124,
      "type": "SCALAR"
    },
    {
      "bufferView": 2,
      "byteOffset": 3145536,
      "componentType": 5126,
      "count": 65532,
      "max": [
        0.14794200658798218,
        -0.04254300147294998,
        0.1496448665857315
      ],
      "min": [
        -0.1565486341714859,
        -0.08963900059461594,
        -0.08324500173330307
      ],
      "type": "VEC3"
    },
    {
      "bufferView": 2,
      "byteOffset": 3931920,
      "componentType": 5126,
      "count": 65532,
      "max": [
        0.9998310804367065,
        0.9999409317970276,
        0.9999961853027344
      ],
      "min": [
        -0.9999809265136719,
        -0.9999983906745911,
        -0.9999529719352722
      ],
      "type": "VEC3"
    },
    {
      "bufferView": 1,
      "byteOffset": 1048512,
      "componentType": 5126,
      "count": 65532,
      "max": [
        0.9995920062065125,
        0.9685059785842896
      ],
      "min": [
        0.00024399999529123306,
        0.0002469999890308827
      ],
      "type": "VEC2"
    },
    {
      "bufferView": 0,
      "byteOffset": 2243448,
      "componentType": 5125,
      "count": 274389,
      "type": "SCALAR"
    },
    {
      "bufferView": 2,
      "byteOffset": 4718304,
      "componentType": 5126,
      "count": 65532,
      "max": [
        0.1532704383134842,
        -0.04315999895334244,
        0.15641066431999207
      ],
      "min": [
        -0.15417654812335968,
        -0.10309299826622009,
        -0.1396999955177307
      ],
      "type": "VEC3"
    },
    {
      "bufferView": 2,
      "byteOffset": 5504688,
      "componentType": 5126,
      "count": 65532,
      "max": [
        0.9996479749679565,
        0.9996249675750732,
        0.9999986886978149
      ],
      "min": [
        -0.9999006390571594,
        -0.9999960064888,
        -0.9999668002128601
      ],
      "type": "VEC3"
    },
    {
      "bufferView": 1,
      "byteOffset": 1572768,
      "componentType": 5126,
      "count": 65532,
      "max": [
        0.9995740056037903,
        0.9841309785842896
      ],
      "min": [
        0.00024399999529123306,
        0.00024399999529123306
      ],
      "type": "VEC2"
    },
    {
      "bufferView": 0,
      "byteOffset": 3341004,
      "componentType": 5125,
      "count": 280251,
      "type": "SCALAR"
    },
    {
      "bufferView": 2,
      "byteOffset": 6291072,
      "componentType": 5126,
      "count": 65532,
      "max": [
        0.14908874034881592,
        -0.044783998280763626,
        -0.03473399952054024
      ],
      "min": [
        -0.1497635394334793,
        -0.09810200333595276,
        -0.15951524674892426
      ],
      "type": "VEC3"
    },
    {
      "bufferView": 2,
      "byteOffset": 7077456,
      "componentType": 5126,
      "count": 65532,
      "max": [
        0.9998530149459839,
        0.999824047088623,
        0.9998813271522522
      ],
      "min": [
        -0.9998058676719666,
        -0.9999960064888,
        -0.9999929070472717
      ],
      "type": "VEC3"
    },
    {
      "bufferView": 1,
      "byteOffset": 2097024,
      "componentType": 5126,
      "count": 65532,
      "max": [
        0.9992820024490356,
        0.9997559785842896
      ],
      "min": [
        0.00024399999529123306,
        0.00024500000290572643
      ],
      "type": "VEC2"
    },
    {
      "bufferView": 0,
      "byteOffset": 4462008,
      "componentType": 5125,
      "count": 281985,
      "type": "SCALAR"
    },
    {
      "bufferView": 2,
      "byteOffset": 7863840,
      "componentType": 5126,
      "count": 65532,
      "max": [
        0.14478597044944763,
        -0.044783998280763626,
        0.031748998910188675
      ],
      "min": [
        -0.14791423082351685,
        -0.09266900271177292,
        -0.15951524674892426
      ],
      "type": "VEC3"
    },
    {
      "bufferView": 2,
      "byteOffset": 8650224,
      "componentType": 5126,
      "count": 65532,
      "max": [
        0.9995339512825012,
        0.999824047088623,
        0.9999666213989258
      ],
      "min": [
        -0.9999269247055054,
        -0.9999908804893494,
        -0.9999451637268066
      ],
      "type": "VEC3"
    },
    {
      "bufferView": 1,
      "byteOffset": 2621280,
      "componentType": 5126,
      "count": 65532,
      "max": [
        0.9997439980506897,
        0.992467999458313
      ],
      "min": [
        0.00024399999529123306,
        0.0002500000118743628
      ],
      "type": "VEC2"
    },
    {
      "bufferView": 0,
      "byteOffset": 5589948,
      "componentType": 5125,
      "count": 222507,
      "type": "SCALAR"
    },
    {
      "bufferView": 2,
      "byteOffset": 9436608,
      "componentType": 5126,
      "count": 65533,
      "max": [
        0.1273220032453537,
        -0.04150699824094772,
        0.1586330682039261
      ],
      "min": [
        -0.15655939280986786,
        -0.10395900160074234,
        -0.049667999148368835
      ],
      "type": "VEC3"
    },
    {
      "bufferView": 2,
      "byteOffset": 10223004,
      "componentType": 5126,
      "count": 65533,
      "max": [
        0.9999347925186157,
        0.9997503757476807,
        0.9999553561210632
      ],
      "min": [
        -0.9999964833259583,
        -0.9999979138374329,
        -0.9999661445617676
      ],
      "type": "VEC3"
    },
    {
      "bufferView": 1,
      "byteOffset": 3145536,
      "componentType": 5126,
      "count": 65533,
      "max": [
        0.9997280240058899,
        0.9733890295028687
      ],
      "min": [
        0.00024399999529123306,
        0.00024500000290572643
      ],
      "type": "VEC2"
    },
    {
      "bufferView": 0,
      "byteOffset": 6479976,
      "componentType": 5125,
      "count": 222252,
      "type": "SCALAR"
    },
    {
      "bufferView": 2,
      "byteOffset": 11009400,
      "componentType": 5126,
      "count": 30621,
      "max": [
        0.15838056802749634,
        -0.046730998903512955,
        0.15899845957756042
      ],
      "min": [
        -0.00941499974578619,
        -0.09539499878883362,
        -0.04967299848794937
      ],
      "type": "VEC3"
    },
    {
      "bufferView": 2,
      "byteOffset": 11376852,
      "componentType": 5126,
      "count": 30621,
      "max": [
        0.9998900294303894,
        0.9996853470802307,
        0.9999010562896729
      ],
      "min": [
        -0.9999920129776001,
        -0.9999983906745911,
        -0.9998102784156799
      ],
      "type": "VEC3"
    },
    {
      "bufferView": 1,
      "byteOffset": 3669800,
      "componentType": 5126,
      "count": 30621,
      "max": [
        0.9997320175170898,
        0.9616699814796448
      ],
      "min": [
        0.00024399999529123306,
        0.0002469999890308827
      ],
      "type": "VEC2"
    },
    {
      "bufferView": 0,
      "byteOffset": 7368984,
      "componentType": 5125,
      "count": 100161,
      "type": "SCALAR"
    },
    {
      "bufferView": 2,
      "byteOffset": 11744304,
      "componentType": 5126,
      "count": 3722,
      "max": [
        0.15855951607227325,
        -0.05219415947794914,
        0.1593048870563507
      ],
      "min": [
        -0.15764932334423065,
        -0.05851632356643677,
        -0.1597970575094223
      ],
      "type": "VEC3"
    },
    {
      "bufferView": 2,
      "byteOffset": 11788968,
      "componentType": 5126,
      "count": 3722,
      "max": [
        0.9780000448226929,
        0.8361039757728577,
        0.9794803261756897
      ],
      "min": [
        -0.9351605772972107,
        -0.9999895095825195,
        -0.9988274574279785
      ],
      "type": "VEC3"
    },
    {
      "bufferView": 1,
      "byteOffset": 3914768,
      "componentType": 5126,
      "count": 3722,
      "max": [
        0.9989020228385925,
        0.9929199814796448
      ],
      "min": [
        0.0007399999885819852,
        0.000547999981790781
      ],
      "type": "VEC2"
    },
    {
      "bufferView": 0,
      "byteOffset": 7769628,
      "componentType": 5125,
      "count": 9381,
      "type": "SCALAR"
    }
  ],
  "asset": {
    "extras": {
      "author": "alban (https://sketchfab.com/alban)",
      "license": "CC-BY-4.0 (http://creativecommons.org/licenses/by/4.0/)",
      "source": "https://sketchfab.com/3d-models/pizza-ballerina-5a8b58e5de2e47119c5d2187f039b555",
      "title": "Pizza Ballerina"
    },
    "generator": "Sketchfab-15.14.0",
    "version": "2.0"
  },
  "bufferViews": [
    {
      "buffer": 0,
      "byteLength": 7807152,
      "name": "floatBufferViews",
      "target": 34963
    },
    {
      "buffer": 0,
      "byteLength": 3944544,
      "byteOffset": 7807152,
      "byteStride": 8,
      "name": "floatBufferViews",
      "target": 34962
    },
    {
      "buffer": 0,
      "byteLength": 11833632,
      "byteOffset": 11751696,
      "byteStride": 12,
      "name": "floatBufferViews",
      "target": 34962
    }
  ],
  "buffers": [
    {
      "byteLength": 23585328,
      "uri": "scene.bin"
    }
  ],
  "extensionsUsed": [
    "KHR_materials_unlit"
  ],
  "images": [
    {
      "uri": "textures/pizz_baseColor.jpeg"
    }
  ],
  "materials": [
    {
      "doubleSided": true,
      "extensions": {
        "KHR_materials_unlit": {}
      },
      "name": "pizz",
      "pbrMetallicRoughness": {
        "baseColorTexture": {
          "index": 0
        },
        "metallicFactor": 0.0
      }
    }
  ],
  "meshes": [
    {
      "name": "Object_0",
      "primitives": [
        {
          "attributes": {
            "NORMAL": 1,
            "POSITION": 0,
            "TEXCOORD_0": 2
          },
          "indices": 3,
          "material": 0,
          "mode": 4
        }
      ]
    },
    {
      "name": "Object_1",
      "primitives": [
        {
          "attributes": {
            "NORMAL": 5,
            "POSITION": 4,
            "TEXCOORD_0": 6
          },
          "indices": 7,
          "material": 0,
          "mode": 4
        }
      ]
    },
    {
      "name": "Object_2",
      "primitives": [
        {
          "attributes": {
            "NORMAL": 9,
            "POSITION": 8,
            "TEXCOORD_0": 10
          },
          "indices": 11,
          "material": 0,
          "mode": 4
        }
      ]
    },
    {
      "name": "Object_3",
      "primitives": [
        {
          "attributes": {
            "NORMAL": 13,
            "POSITION": 12,
            "TEXCOORD_0": 14
          },
          "indices": 15,
          "material": 0,
          "mode": 4
        }
      ]
    },
    {
      "name": "Object_4",
      "primitives": [
        {
          "attributes": {
            "NORMAL": 17,
            "POSITION": 16,
            "TEXCOORD_0": 18
          },
          "indices": 19,
          "material": 0,
          "mode": 4
        }
      ]
    },
    {
      "name": "Object_5",
      "primitives": [
        {
          "attributes": {
            "NORMAL": 21,
            "POSITION": 20,
            "TEXCOORD_0": 22
          },
          "indices": 23,
          "material": 0,
          "mode": 4
        }
      ]
    },
    {
      "name": "Object_6",
      "primitives": [
        {
          "attributes": {
            "NORMAL": 25,
            "POSITION": 24,
            "TEXCOORD_0": 26
          },
          "indices": 27,
          "material": 0,
          "mode": 4
        }
      ]
    },
    {
      "name": "Object_7",
      "primitives": [
        {
          "attributes": {
            "NORMAL": 29,
            "POSITION": 28,
            "TEXCOORD_0": 30
          },
          "indices": 31,
          "material": 0,
          "mode": 4
        }
      ]
    },
    {
      "name": "Object_8",
      "primitives": [
        {
          "attributes": {
            "NORMAL": 33,
            "POSITION": 32,
            "TEXCOORD_0": 34
          },
          "indices": 35,
          "material": 0,
          "mode": 4
        }
      ]
    }
  ],
  "nodes": [
    {
      "children": [
        1
      ],
      "matrix": [
        1.0433245466006724,
        -0.016095694872202637,
        -8.099199540446387e-18,
        0.0,
        -0.016095694872202637,
        -1.0433245466006724,
        -7.772314418607185e-16,
        0.0,
        2.7151423989325802e-18,
        7.772731478444261e-16,
        -1.0434486865997314,
        0.0,
        0.0,
        0.0,
        0.0,
        1.0
      ],
      "name": "Sketchfab_model"
    },
    {
      "children": [
        2,
        3,
        4,
        5,
        6,
        7,
        8,
        9,
        10
      ],
      "name": "pizzclean.obj.cleaner.materialmerger.gles"
    },
    {
      "mesh": 0,
      "name": "Object_2"
    },
    {
      "mesh": 1,
      "name": "Object_3"
    },
    {
      "mesh": 2,
      "name": "Object_4"
    },
    {
      "mesh": 3,
      "name": "Object_5"
    },
    {
      "mesh": 4,
      "name": "Object_6"
    },
    {
      "mesh": 5,
      "name": "Object_7"
    },
    {
      "mesh": 6,
      "name": "Object_8"
    },
    {
      "mesh": 7,
      "name": "Object_9"
    },
    {
      "mesh": 8,
      "name": "Object_10"
    }
  ],
  "samplers": [
    {
      "magFilter": 9729,
      "minFilter": 9987,
      "wrapS": 10497,
      "wrapT": 10497
    }
  ],
  "scene": 0,
  "scenes": [
    {
      "name": "Sketchfab_Scene",
      "nodes": [
        0
      ]
    }
  ],
  "textures": [
    {
      "sampler": 0,
      "source": 0
    }
  ]
}
